<?xml version="1.0" standalone="no"?>
<!DOCTYPE svg PUBLIC "-//W3C//DTD SVG 20010904//EN"
 "http://www.w3.org/TR/2001/REC-SVG-20010904/DTD/svg10.dtd">
<svg version="1.0" xmlns="http://www.w3.org/2000/svg"
 width="176.000000pt" height="176.000000pt" viewBox="0 0 176.000000 176.000000"
 preserveAspectRatio="xMidYMid meet">
<metadata>
Created by potrace 1.14, written by Peter Selinger 2001-2017
</metadata>
<g transform="translate(0.000000,176.000000) scale(0.100000,-0.100000)"
fill="#000000" stroke="none">
<path d="M80 880 l0 -880 170 0 c149 0 171 2 177 16 3 9 2 24 -4 33 -8 13 -32
16 -139 17 l-129 1 0 809 0 809 728 2 727 2 0 -810 c0 -640 -3 -809 -12 -810
-7 -1 -66 -1 -130 -1 -125 -1 -146 -8 -133 -48 6 -19 14 -20 174 -20 l168 0 0
880 0 880 -798 0 -799 0 0 -880z"/>
<path d="M441 1461 c-12 -8 -14 -98 -14 -579 0 -313 3 -574 7 -580 10 -16 53
-15 58 1 2 6 4 234 4 505 -1 270 0 492 0 492 1 0 17 -30 35 -67 94 -195 198
-412 251 -523 61 -129 69 -140 97 -135 9 2 19 4 23 4 4 1 30 47 57 104 27 56
109 224 181 372 198 404 194 396 179 406 -39 25 -48 13 -142 -181 -47 -96
-127 -264 -180 -372 -52 -108 -98 -206 -102 -218 -3 -11 -10 -20 -14 -20 -4 0
-33 53 -64 118 -312 658 -324 682 -344 682 -10 0 -24 -4 -32 -9z"/>
<path d="M1295 867 l-29 -61 -1 -236 c-1 -129 1 -245 3 -258 3 -17 11 -22 33
-22 23 0 29 5 30 23 4 97 3 580 -1 596 -4 15 -12 6 -35 -42z"/>
</g>
</svg>
